%TF.GenerationSoftware,KiCad,Pcbnew,10.0.5*%
%TF.CreationDate,2026-07-24T14:44:47+03:00*%
%TF.ProjectId,kandity_Schematic,6b616e64-6974-479f-9653-6368656d6174,rev?*%
%TF.SameCoordinates,Original*%
%TF.FileFunction,Copper,L2,Bot*%
%TF.FilePolarity,Positive*%
%FSLAX46Y46*%
G04 Gerber Fmt 4.6, Leading zero omitted, Abs format (unit mm)*
G04 Created by KiCad (PCBNEW 10.0.5) date 2026-07-24 14:44:47*
%MOMM*%
%LPD*%
G01*
G04 APERTURE LIST*
%TA.AperFunction,ComponentPad*%
%ADD10C,1.700000*%
%TD*%
%TA.AperFunction,ComponentPad*%
%ADD11R,1.700000X1.700000*%
%TD*%
%TA.AperFunction,ComponentPad*%
%ADD12R,1.508000X1.508000*%
%TD*%
%TA.AperFunction,ComponentPad*%
%ADD13C,1.508000*%
%TD*%
%TA.AperFunction,ViaPad*%
%ADD14C,0.600000*%
%TD*%
%TA.AperFunction,Conductor*%
%ADD15C,0.200000*%
%TD*%
G04 APERTURE END LIST*
D10*
%TO.P,J2,4,4_4*%
%TO.N,Net-(U1-A0)*%
X138500000Y-111810000D03*
%TO.P,J2,3,3_3*%
%TO.N,Net-(U1-A1)*%
X138500000Y-109270000D03*
%TO.P,J2,2,2_2*%
%TO.N,Net-(U1-A2)*%
X138500000Y-106730000D03*
D11*
%TO.P,J2,1,1_1*%
%TO.N,Net-(U1-A3)*%
X138500000Y-104190000D03*
%TD*%
D12*
%TO.P,U2,1,D0_1*%
%TO.N,Net-(U2-D0)*%
X112647500Y-73704750D03*
D13*
%TO.P,U2,2,D1_2*%
%TO.N,Net-(U2-D1)*%
X112647500Y-76244750D03*
%TO.P,U2,3,D2_3*%
%TO.N,Net-(U2-D2)*%
X112647500Y-78784750D03*
%TO.P,U2,4,D3_4*%
%TO.N,Net-(U2-D3)*%
X112647500Y-81324750D03*
%TO.P,U2,5,D4_5*%
%TO.N,Net-(U1-A)*%
X112647500Y-83864750D03*
%TO.P,U2,6,D5_6*%
%TO.N,unconnected-(U2-D5-Pad6)*%
X112647500Y-86404750D03*
%TO.P,U2,7,D6_7*%
%TO.N,unconnected-(U2-D6-Pad7)*%
X112647500Y-88944750D03*
%TO.P,U2,8,D7_8*%
%TO.N,unconnected-(U2-D7-Pad8)*%
X127887500Y-88944750D03*
%TO.P,U2,9,D8_9*%
%TO.N,Net-(U1-S0)*%
X127887500Y-86404750D03*
%TO.P,U2,10,D9_10*%
%TO.N,Net-(U1-S1)*%
X127887500Y-83864750D03*
%TO.P,U2,11,D10_11*%
%TO.N,Net-(U1-S2)*%
X127887500Y-81324750D03*
%TO.P,U2,12,3V3_12*%
%TO.N,Net-(U1-VCC)*%
X127887500Y-78784750D03*
%TO.P,U2,13,GND_13*%
%TO.N,GND*%
X127887500Y-76244750D03*
%TO.P,U2,14,5V_14*%
%TO.N,unconnected-(U2-5V-Pad14)*%
X127887500Y-73704750D03*
%TD*%
D11*
%TO.P,J1,1,1_1*%
%TO.N,Net-(U2-D0)*%
X96000000Y-73190000D03*
D10*
%TO.P,J1,2,2_2*%
%TO.N,Net-(U2-D1)*%
X96000000Y-75730000D03*
%TO.P,J1,3,3_3*%
%TO.N,Net-(U2-D2)*%
X96000000Y-78270000D03*
%TO.P,J1,4,4_4*%
%TO.N,Net-(U2-D3)*%
X96000000Y-80810000D03*
%TD*%
D14*
%TO.N,Net-(U1-A3)*%
X123500000Y-108600000D03*
X131000000Y-104500000D03*
%TO.N,Net-(U1-A0)*%
X124500000Y-108000000D03*
X127000000Y-110000000D03*
%TO.N,Net-(U1-A1)*%
X129000000Y-109000000D03*
X125500000Y-107000000D03*
%TO.N,Net-(U1-A2)*%
X127000000Y-105500000D03*
X130176764Y-106676764D03*
%TD*%
%TO.N,Net-(U1-A3)*%
D15*
X123500000Y-108151471D02*
X123500000Y-108600000D01*
X127151471Y-104500000D02*
X123500000Y-108151471D01*
X131000000Y-104500000D02*
X127151471Y-104500000D01*
%TO.N,Net-(U1-A0)*%
X125000000Y-108000000D02*
X124500000Y-108000000D01*
X127000000Y-110000000D02*
X125000000Y-108000000D01*
%TO.N,Net-(U1-A1)*%
X127500000Y-109000000D02*
X125500000Y-107000000D01*
X129000000Y-109000000D02*
X127500000Y-109000000D01*
%TO.N,Net-(U1-A2)*%
X128176764Y-106676764D02*
X127000000Y-105500000D01*
X130176764Y-106676764D02*
X128176764Y-106676764D01*
%TD*%
%TA.AperFunction,Conductor*%
%TO.N,GND*%
G36*
X144442539Y-65520185D02*
G01*
X144488294Y-65572989D01*
X144499500Y-65624500D01*
X144499500Y-117375500D01*
X144479815Y-117442539D01*
X144427011Y-117488294D01*
X144375500Y-117499500D01*
X92624500Y-117499500D01*
X92557461Y-117479815D01*
X92511706Y-117427011D01*
X92500500Y-117375500D01*
X92500500Y-108521153D01*
X122699500Y-108521153D01*
X122699500Y-108678846D01*
X122730261Y-108833489D01*
X122730264Y-108833501D01*
X122790602Y-108979172D01*
X122790609Y-108979185D01*
X122878210Y-109110288D01*
X122878213Y-109110292D01*
X122989707Y-109221786D01*
X122989711Y-109221789D01*
X123120814Y-109309390D01*
X123120827Y-109309397D01*
X123266498Y-109369735D01*
X123266503Y-109369737D01*
X123421153Y-109400499D01*
X123421156Y-109400500D01*
X123421158Y-109400500D01*
X123578844Y-109400500D01*
X123578845Y-109400499D01*
X123733497Y-109369737D01*
X123879179Y-109309394D01*
X124010289Y-109221789D01*
X124121789Y-109110289D01*
X124209394Y-108979179D01*
X124209395Y-108979176D01*
X124209397Y-108979173D01*
X124254947Y-108869203D01*
X124298787Y-108814799D01*
X124365081Y-108792734D01*
X124393697Y-108795037D01*
X124421158Y-108800500D01*
X124578844Y-108800500D01*
X124578845Y-108800499D01*
X124733497Y-108769737D01*
X124789182Y-108746670D01*
X124858651Y-108739202D01*
X124921130Y-108770477D01*
X124924316Y-108773551D01*
X126165425Y-110014660D01*
X126198910Y-110075983D01*
X126199361Y-110078149D01*
X126230261Y-110233491D01*
X126230264Y-110233501D01*
X126290602Y-110379172D01*
X126290609Y-110379185D01*
X126378210Y-110510288D01*
X126378213Y-110510292D01*
X126489707Y-110621786D01*
X126489711Y-110621789D01*
X126620814Y-110709390D01*
X126620827Y-110709397D01*
X126766498Y-110769735D01*
X126766503Y-110769737D01*
X126921153Y-110800499D01*
X126921156Y-110800500D01*
X126921158Y-110800500D01*
X127078844Y-110800500D01*
X127078845Y-110800499D01*
X127233497Y-110769737D01*
X127379179Y-110709394D01*
X127510289Y-110621789D01*
X127621789Y-110510289D01*
X127709394Y-110379179D01*
X127769737Y-110233497D01*
X127800500Y-110078842D01*
X127800500Y-109921158D01*
X127800500Y-109921155D01*
X127800499Y-109921153D01*
X127769738Y-109766510D01*
X127769737Y-109766503D01*
X127769732Y-109766492D01*
X127767969Y-109760676D01*
X127770720Y-109759841D01*
X127764497Y-109702641D01*
X127795691Y-109640122D01*
X127855734Y-109604392D01*
X127886555Y-109600500D01*
X128420234Y-109600500D01*
X128487273Y-109620185D01*
X128489125Y-109621398D01*
X128620814Y-109709390D01*
X128620827Y-109709397D01*
X128758695Y-109766503D01*
X128766503Y-109769737D01*
X128921153Y-109800499D01*
X128921156Y-109800500D01*
X128921158Y-109800500D01*
X129078844Y-109800500D01*
X129078845Y-109800499D01*
X129233497Y-109769737D01*
X129379179Y-109709394D01*
X129510289Y-109621789D01*
X129621789Y-109510289D01*
X129709394Y-109379179D01*
X129769737Y-109233497D01*
X129800500Y-109078842D01*
X129800500Y-108921158D01*
X129800500Y-108921155D01*
X129800499Y-108921153D01*
X129783061Y-108833489D01*
X129769737Y-108766503D01*
X129763558Y-108751585D01*
X129709397Y-108620827D01*
X129709390Y-108620814D01*
X129621789Y-108489711D01*
X129621786Y-108489707D01*
X129510292Y-108378213D01*
X129510288Y-108378210D01*
X129379185Y-108290609D01*
X129379172Y-108290602D01*
X129233501Y-108230264D01*
X129233489Y-108230261D01*
X129078845Y-108199500D01*
X129078842Y-108199500D01*
X128921158Y-108199500D01*
X128921155Y-108199500D01*
X128766510Y-108230261D01*
X128766498Y-108230264D01*
X128620827Y-108290602D01*
X128620814Y-108290609D01*
X128489125Y-108378602D01*
X128422447Y-108399480D01*
X128420234Y-108399500D01*
X127800097Y-108399500D01*
X127733058Y-108379815D01*
X127712416Y-108363181D01*
X126334574Y-106985339D01*
X126301089Y-106924016D01*
X126300638Y-106921849D01*
X126269738Y-106766510D01*
X126269737Y-106766503D01*
X126210592Y-106623713D01*
X126209397Y-106620827D01*
X126209390Y-106620814D01*
X126133948Y-106507908D01*
X126113070Y-106441231D01*
X126131554Y-106373851D01*
X126149365Y-106351340D01*
X126351338Y-106149367D01*
X126412659Y-106115884D01*
X126482351Y-106120868D01*
X126507908Y-106133948D01*
X126620814Y-106209390D01*
X126620827Y-106209397D01*
X126766498Y-106269735D01*
X126766503Y-106269737D01*
X126831147Y-106282595D01*
X126921849Y-106300638D01*
X126983760Y-106333023D01*
X126985336Y-106334571D01*
X127808048Y-107157284D01*
X127808050Y-107157285D01*
X127808054Y-107157288D01*
X127944973Y-107236337D01*
X127944980Y-107236341D01*
X128097707Y-107277265D01*
X128097709Y-107277265D01*
X128263418Y-107277265D01*
X128263434Y-107277264D01*
X129596998Y-107277264D01*
X129664037Y-107296949D01*
X129665889Y-107298162D01*
X129797578Y-107386154D01*
X129797591Y-107386161D01*
X129922299Y-107437816D01*
X129943267Y-107446501D01*
X130097917Y-107477263D01*
X130097920Y-107477264D01*
X130097922Y-107477264D01*
X130255608Y-107477264D01*
X130255609Y-107477263D01*
X130410261Y-107446501D01*
X130555943Y-107386158D01*
X130687053Y-107298553D01*
X130798553Y-107187053D01*
X130886158Y-107055943D01*
X130890178Y-107046239D01*
X130915403Y-106985339D01*
X130946501Y-106910261D01*
X130977264Y-106755606D01*
X130977264Y-106597922D01*
X130977264Y-106597919D01*
X130977263Y-106597917D01*
X130946502Y-106443274D01*
X130946501Y-106443267D01*
X130917748Y-106373851D01*
X130886161Y-106297591D01*
X130886154Y-106297578D01*
X130798553Y-106166475D01*
X130798550Y-106166471D01*
X130687056Y-106054977D01*
X130687052Y-106054974D01*
X130555949Y-105967373D01*
X130555936Y-105967366D01*
X130410265Y-105907028D01*
X130410253Y-105907025D01*
X130255609Y-105876264D01*
X130255606Y-105876264D01*
X130097922Y-105876264D01*
X130097919Y-105876264D01*
X129943274Y-105907025D01*
X129943262Y-105907028D01*
X129797591Y-105967366D01*
X129797578Y-105967373D01*
X129665889Y-106055366D01*
X129599211Y-106076244D01*
X129596998Y-106076264D01*
X128476862Y-106076264D01*
X128409823Y-106056579D01*
X128389181Y-106039945D01*
X127834573Y-105485337D01*
X127801088Y-105424014D01*
X127800637Y-105421847D01*
X127772885Y-105282331D01*
X127769737Y-105266503D01*
X127769732Y-105266492D01*
X127767969Y-105260676D01*
X127770720Y-105259841D01*
X127764497Y-105202641D01*
X127795691Y-105140122D01*
X127855734Y-105104392D01*
X127886555Y-105100500D01*
X130420234Y-105100500D01*
X130487273Y-105120185D01*
X130489125Y-105121398D01*
X130620814Y-105209390D01*
X130620827Y-105209397D01*
X130758695Y-105266503D01*
X130766503Y-105269737D01*
X130921153Y-105300499D01*
X130921156Y-105300500D01*
X130921158Y-105300500D01*
X131078844Y-105300500D01*
X131078845Y-105300499D01*
X131233497Y-105269737D01*
X131379179Y-105209394D01*
X131510289Y-105121789D01*
X131621789Y-105010289D01*
X131709394Y-104879179D01*
X131769737Y-104733497D01*
X131800500Y-104578842D01*
X131800500Y-104421158D01*
X131800500Y-104421155D01*
X131800499Y-104421153D01*
X131769738Y-104266510D01*
X131769737Y-104266503D01*
X131713728Y-104131284D01*
X131709397Y-104120827D01*
X131709390Y-104120814D01*
X131621789Y-103989711D01*
X131621786Y-103989707D01*
X131510292Y-103878213D01*
X131510288Y-103878210D01*
X131379185Y-103790609D01*
X131379172Y-103790602D01*
X131233501Y-103730264D01*
X131233489Y-103730261D01*
X131078845Y-103699500D01*
X131078842Y-103699500D01*
X130921158Y-103699500D01*
X130921155Y-103699500D01*
X130766510Y-103730261D01*
X130766498Y-103730264D01*
X130620827Y-103790602D01*
X130620814Y-103790609D01*
X130489125Y-103878602D01*
X130422447Y-103899480D01*
X130420234Y-103899500D01*
X127238141Y-103899500D01*
X127238125Y-103899499D01*
X127230529Y-103899499D01*
X127072414Y-103899499D01*
X126965058Y-103928265D01*
X126919681Y-103940424D01*
X126919680Y-103940425D01*
X126869567Y-103969359D01*
X126869566Y-103969360D01*
X126834324Y-103989707D01*
X126782756Y-104019479D01*
X126782753Y-104019481D01*
X123019481Y-107782753D01*
X123019479Y-107782756D01*
X122969361Y-107869565D01*
X122969359Y-107869567D01*
X122940425Y-107919680D01*
X122940424Y-107919682D01*
X122940423Y-107919686D01*
X122909557Y-108034872D01*
X122881087Y-108084190D01*
X122882076Y-108085002D01*
X122878210Y-108089712D01*
X122790609Y-108220815D01*
X122790602Y-108220827D01*
X122730264Y-108366498D01*
X122730261Y-108366510D01*
X122699500Y-108521153D01*
X92500500Y-108521153D01*
X92500500Y-103292135D01*
X137149500Y-103292135D01*
X137149500Y-105087870D01*
X137149501Y-105087876D01*
X137155908Y-105147483D01*
X137206202Y-105282328D01*
X137206206Y-105282335D01*
X137292452Y-105397544D01*
X137292455Y-105397547D01*
X137407664Y-105483793D01*
X137407671Y-105483797D01*
X137539082Y-105532810D01*
X137595016Y-105574681D01*
X137619433Y-105640145D01*
X137604582Y-105708418D01*
X137583431Y-105736673D01*
X137469889Y-105850215D01*
X137344951Y-106022179D01*
X137248444Y-106211585D01*
X137182753Y-106413760D01*
X137149500Y-106623713D01*
X137149500Y-106836286D01*
X137173107Y-106985339D01*
X137182754Y-107046243D01*
X137185903Y-107055936D01*
X137248444Y-107248414D01*
X137344951Y-107437820D01*
X137469890Y-107609786D01*
X137620213Y-107760109D01*
X137792182Y-107885050D01*
X137800946Y-107889516D01*
X137851742Y-107937491D01*
X137868536Y-108005312D01*
X137845998Y-108071447D01*
X137800946Y-108110484D01*
X137792182Y-108114949D01*
X137620213Y-108239890D01*
X137469890Y-108390213D01*
X137344951Y-108562179D01*
X137248444Y-108751585D01*
X137182753Y-108953760D01*
X137157961Y-109110292D01*
X137149500Y-109163713D01*
X137149500Y-109376287D01*
X137182754Y-109586243D01*
X137242375Y-109769738D01*
X137248444Y-109788414D01*
X137344951Y-109977820D01*
X137469890Y-110149786D01*
X137620213Y-110300109D01*
X137792182Y-110425050D01*
X137800946Y-110429516D01*
X137851742Y-110477491D01*
X137868536Y-110545312D01*
X137845998Y-110611447D01*
X137800946Y-110650484D01*
X137792182Y-110654949D01*
X137620213Y-110779890D01*
X137469890Y-110930213D01*
X137344951Y-111102179D01*
X137248444Y-111291585D01*
X137182753Y-111493760D01*
X137149500Y-111703713D01*
X137149500Y-111916286D01*
X137182753Y-112126239D01*
X137248444Y-112328414D01*
X137344951Y-112517820D01*
X137469890Y-112689786D01*
X137620213Y-112840109D01*
X137792179Y-112965048D01*
X137792181Y-112965049D01*
X137792184Y-112965051D01*
X137981588Y-113061557D01*
X138183757Y-113127246D01*
X138393713Y-113160500D01*
X138393714Y-113160500D01*
X138606286Y-113160500D01*
X138606287Y-113160500D01*
X138816243Y-113127246D01*
X139018412Y-113061557D01*
X139207816Y-112965051D01*
X139229789Y-112949086D01*
X139379786Y-112840109D01*
X139379788Y-112840106D01*
X139379792Y-112840104D01*
X139530104Y-112689792D01*
X139530106Y-112689788D01*
X139530109Y-112689786D01*
X139655048Y-112517820D01*
X139655047Y-112517820D01*
X139655051Y-112517816D01*
X139751557Y-112328412D01*
X139817246Y-112126243D01*
X139850500Y-111916287D01*
X139850500Y-111703713D01*
X139817246Y-111493757D01*
X139751557Y-111291588D01*
X139655051Y-111102184D01*
X139655049Y-111102181D01*
X139655048Y-111102179D01*
X139530109Y-110930213D01*
X139379786Y-110779890D01*
X139207820Y-110654951D01*
X139207115Y-110654591D01*
X139199054Y-110650485D01*
X139148259Y-110602512D01*
X139131463Y-110534692D01*
X139153999Y-110468556D01*
X139199054Y-110429515D01*
X139207816Y-110425051D01*
X139270954Y-110379179D01*
X139379786Y-110300109D01*
X139379788Y-110300106D01*
X139379792Y-110300104D01*
X139530104Y-110149792D01*
X139530106Y-110149788D01*
X139530109Y-110149786D01*
X139655048Y-109977820D01*
X139655047Y-109977820D01*
X139655051Y-109977816D01*
X139751557Y-109788412D01*
X139817246Y-109586243D01*
X139850500Y-109376287D01*
X139850500Y-109163713D01*
X139817246Y-108953757D01*
X139751557Y-108751588D01*
X139655051Y-108562184D01*
X139655049Y-108562181D01*
X139655048Y-108562179D01*
X139530109Y-108390213D01*
X139379786Y-108239890D01*
X139207820Y-108114951D01*
X139207115Y-108114591D01*
X139199054Y-108110485D01*
X139148259Y-108062512D01*
X139131463Y-107994692D01*
X139153999Y-107928556D01*
X139199054Y-107889515D01*
X139207816Y-107885051D01*
X139229789Y-107869086D01*
X139379786Y-107760109D01*
X139379788Y-107760106D01*
X139379792Y-107760104D01*
X139530104Y-107609792D01*
X139530106Y-107609788D01*
X139530109Y-107609786D01*
X139655048Y-107437820D01*
X139655047Y-107437820D01*
X139655051Y-107437816D01*
X139751557Y-107248412D01*
X139817246Y-107046243D01*
X139850500Y-106836287D01*
X139850500Y-106623713D01*
X139817246Y-106413757D01*
X139751557Y-106211588D01*
X139655051Y-106022184D01*
X139655049Y-106022181D01*
X139655048Y-106022179D01*
X139530109Y-105850213D01*
X139416569Y-105736673D01*
X139383084Y-105675350D01*
X139388068Y-105605658D01*
X139429940Y-105549725D01*
X139460915Y-105532810D01*
X139592331Y-105483796D01*
X139707546Y-105397546D01*
X139793796Y-105282331D01*
X139844091Y-105147483D01*
X139850500Y-105087873D01*
X139850499Y-103292128D01*
X139844091Y-103232517D01*
X139793796Y-103097669D01*
X139793795Y-103097668D01*
X139793793Y-103097664D01*
X139707547Y-102982455D01*
X139707544Y-102982452D01*
X139592335Y-102896206D01*
X139592328Y-102896202D01*
X139457482Y-102845908D01*
X139457483Y-102845908D01*
X139397883Y-102839501D01*
X139397881Y-102839500D01*
X139397873Y-102839500D01*
X139397864Y-102839500D01*
X137602129Y-102839500D01*
X137602123Y-102839501D01*
X137542516Y-102845908D01*
X137407671Y-102896202D01*
X137407664Y-102896206D01*
X137292455Y-102982452D01*
X137292452Y-102982455D01*
X137206206Y-103097664D01*
X137206202Y-103097671D01*
X137155908Y-103232517D01*
X137149501Y-103292116D01*
X137149501Y-103292123D01*
X137149500Y-103292135D01*
X92500500Y-103292135D01*
X92500500Y-72292135D01*
X94649500Y-72292135D01*
X94649500Y-74087870D01*
X94649501Y-74087876D01*
X94655908Y-74147483D01*
X94706202Y-74282328D01*
X94706206Y-74282335D01*
X94792452Y-74397544D01*
X94792455Y-74397547D01*
X94907664Y-74483793D01*
X94907671Y-74483797D01*
X95039082Y-74532810D01*
X95095016Y-74574681D01*
X95119433Y-74640145D01*
X95104582Y-74708418D01*
X95083431Y-74736673D01*
X94969889Y-74850215D01*
X94844951Y-75022179D01*
X94748444Y-75211585D01*
X94682753Y-75413760D01*
X94660896Y-75551759D01*
X94649500Y-75623713D01*
X94649500Y-75836287D01*
X94682754Y-76046243D01*
X94747253Y-76244751D01*
X94748444Y-76248414D01*
X94844951Y-76437820D01*
X94969890Y-76609786D01*
X95120213Y-76760109D01*
X95292182Y-76885050D01*
X95300946Y-76889516D01*
X95351742Y-76937491D01*
X95368536Y-77005312D01*
X95345998Y-77071447D01*
X95300946Y-77110484D01*
X95292182Y-77114949D01*
X95120213Y-77239890D01*
X94969890Y-77390213D01*
X94844951Y-77562179D01*
X94748444Y-77751585D01*
X94682753Y-77953760D01*
X94655276Y-78127245D01*
X94649500Y-78163713D01*
X94649500Y-78376287D01*
X94682754Y-78586243D01*
X94715173Y-78686019D01*
X94748444Y-78788414D01*
X94844951Y-78977820D01*
X94969890Y-79149786D01*
X95120213Y-79300109D01*
X95292182Y-79425050D01*
X95300946Y-79429516D01*
X95351742Y-79477491D01*
X95368536Y-79545312D01*
X95345998Y-79611447D01*
X95300946Y-79650484D01*
X95292182Y-79654949D01*
X95120213Y-79779890D01*
X94969890Y-79930213D01*
X94844951Y-80102179D01*
X94748444Y-80291585D01*
X94682753Y-80493760D01*
X94655276Y-80667245D01*
X94649500Y-80703713D01*
X94649500Y-80916287D01*
X94682754Y-81126243D01*
X94715173Y-81226019D01*
X94748444Y-81328414D01*
X94844951Y-81517820D01*
X94969890Y-81689786D01*
X95120213Y-81840109D01*
X95292179Y-81965048D01*
X95292181Y-81965049D01*
X95292184Y-81965051D01*
X95481588Y-82061557D01*
X95683757Y-82127246D01*
X95893713Y-82160500D01*
X95893714Y-82160500D01*
X96106286Y-82160500D01*
X96106287Y-82160500D01*
X96316243Y-82127246D01*
X96518412Y-82061557D01*
X96707816Y-81965051D01*
X96729789Y-81949086D01*
X96879786Y-81840109D01*
X96879788Y-81840106D01*
X96879792Y-81840104D01*
X97030104Y-81689792D01*
X97030106Y-81689788D01*
X97030109Y-81689786D01*
X97155048Y-81517820D01*
X97155047Y-81517820D01*
X97155051Y-81517816D01*
X97251557Y-81328412D01*
X97317246Y-81126243D01*
X97350500Y-80916287D01*
X97350500Y-80703713D01*
X97317246Y-80493757D01*
X97251557Y-80291588D01*
X97155051Y-80102184D01*
X97155049Y-80102181D01*
X97155048Y-80102179D01*
X97030109Y-79930213D01*
X96879786Y-79779890D01*
X96707820Y-79654951D01*
X96707115Y-79654591D01*
X96699054Y-79650485D01*
X96648259Y-79602512D01*
X96631463Y-79534692D01*
X96653999Y-79468556D01*
X96699054Y-79429515D01*
X96707816Y-79425051D01*
X96729789Y-79409086D01*
X96879786Y-79300109D01*
X96879788Y-79300106D01*
X96879792Y-79300104D01*
X97030104Y-79149792D01*
X97030106Y-79149788D01*
X97030109Y-79149786D01*
X97155048Y-78977820D01*
X97155047Y-78977820D01*
X97155051Y-78977816D01*
X97251557Y-78788412D01*
X97317246Y-78586243D01*
X97350500Y-78376287D01*
X97350500Y-78163713D01*
X97317246Y-77953757D01*
X97251557Y-77751588D01*
X97155051Y-77562184D01*
X97155049Y-77562181D01*
X97155048Y-77562179D01*
X97030109Y-77390213D01*
X96879786Y-77239890D01*
X96707820Y-77114951D01*
X96707115Y-77114591D01*
X96699054Y-77110485D01*
X96648259Y-77062512D01*
X96631463Y-76994692D01*
X96653999Y-76928556D01*
X96699054Y-76889515D01*
X96707816Y-76885051D01*
X96729789Y-76869086D01*
X96879786Y-76760109D01*
X96879788Y-76760106D01*
X96879792Y-76760104D01*
X97030104Y-76609792D01*
X97030106Y-76609788D01*
X97030109Y-76609786D01*
X97155048Y-76437820D01*
X97155047Y-76437820D01*
X97155051Y-76437816D01*
X97251557Y-76248412D01*
X97317246Y-76046243D01*
X97350500Y-75836287D01*
X97350500Y-75623713D01*
X97317246Y-75413757D01*
X97251557Y-75211588D01*
X97155051Y-75022184D01*
X97155049Y-75022181D01*
X97155048Y-75022179D01*
X97030109Y-74850213D01*
X96916569Y-74736673D01*
X96883084Y-74675350D01*
X96888068Y-74605658D01*
X96929940Y-74549725D01*
X96960915Y-74532810D01*
X97092331Y-74483796D01*
X97207546Y-74397546D01*
X97293796Y-74282331D01*
X97344091Y-74147483D01*
X97350500Y-74087873D01*
X97350499Y-72902885D01*
X111393000Y-72902885D01*
X111393000Y-74506620D01*
X111393001Y-74506626D01*
X111399408Y-74566233D01*
X111449702Y-74701078D01*
X111449706Y-74701085D01*
X111535952Y-74816294D01*
X111535955Y-74816297D01*
X111651164Y-74902543D01*
X111651171Y-74902547D01*
X111786017Y-74952841D01*
X111786016Y-74952841D01*
X111792944Y-74953585D01*
X111845627Y-74959250D01*
X111900924Y-74959249D01*
X111967961Y-74978932D01*
X112013716Y-75031736D01*
X112023661Y-75100894D01*
X111994637Y-75164450D01*
X111973809Y-75183567D01*
X111830249Y-75287869D01*
X111690615Y-75427503D01*
X111574558Y-75587245D01*
X111484908Y-75763191D01*
X111423889Y-75950986D01*
X111393000Y-76146013D01*
X111393000Y-76343486D01*
X111423889Y-76538513D01*
X111484848Y-76726123D01*
X111484909Y-76726311D01*
X111574423Y-76901989D01*
X111574558Y-76902254D01*
X111690615Y-77061996D01*
X111830253Y-77201634D01*
X111953658Y-77291291D01*
X111989999Y-77317694D01*
X112159904Y-77404266D01*
X112210699Y-77452240D01*
X112227494Y-77520061D01*
X112204956Y-77586196D01*
X112159904Y-77625233D01*
X112002821Y-77705272D01*
X111989995Y-77711808D01*
X111830253Y-77827865D01*
X111690615Y-77967503D01*
X111574558Y-78127245D01*
X111484908Y-78303191D01*
X111423889Y-78490986D01*
X111393000Y-78686013D01*
X111393000Y-78883486D01*
X111423889Y-79078513D01*
X111484908Y-79266308D01*
X111484909Y-79266311D01*
X111574556Y-79442251D01*
X111574558Y-79442254D01*
X111690615Y-79601996D01*
X111830253Y-79741634D01*
X111979734Y-79850236D01*
X111989999Y-79857694D01*
X112159904Y-79944266D01*
X112210699Y-79992240D01*
X112227494Y-80060061D01*
X112204956Y-80126196D01*
X112159904Y-80165233D01*
X112002821Y-80245272D01*
X111989995Y-80251808D01*
X111830253Y-80367865D01*
X111690615Y-80507503D01*
X111574558Y-80667245D01*
X111484908Y-80843191D01*
X111423889Y-81030986D01*
X111393000Y-81226013D01*
X111393000Y-81423486D01*
X111423889Y-81618513D01*
X111484908Y-81806308D01*
X111484909Y-81806311D01*
X111574556Y-81982251D01*
X111574558Y-81982254D01*
X111690615Y-82141996D01*
X111830253Y-82281634D01*
X111979734Y-82390236D01*
X111989999Y-82397694D01*
X112159904Y-82484266D01*
X112210699Y-82532240D01*
X112227494Y-82600061D01*
X112204956Y-82666196D01*
X112159904Y-82705233D01*
X112002821Y-82785272D01*
X111989995Y-82791808D01*
X111830253Y-82907865D01*
X111690615Y-83047503D01*
X111574558Y-83207245D01*
X111484908Y-83383191D01*
X111423889Y-83570986D01*
X111393000Y-83766013D01*
X111393000Y-83963486D01*
X111423889Y-84158513D01*
X111484908Y-84346308D01*
X111484909Y-84346311D01*
X111574556Y-84522251D01*
X111574558Y-84522254D01*
X111690615Y-84681996D01*
X111830253Y-84821634D01*
X111979734Y-84930236D01*
X111989999Y-84937694D01*
X112159904Y-85024266D01*
X112210699Y-85072240D01*
X112227494Y-85140061D01*
X112204956Y-85206196D01*
X112159904Y-85245233D01*
X112002821Y-85325272D01*
X111989995Y-85331808D01*
X111830253Y-85447865D01*
X111690615Y-85587503D01*
X111574558Y-85747245D01*
X111484908Y-85923191D01*
X111423889Y-86110986D01*
X111393000Y-86306013D01*
X111393000Y-86503486D01*
X111423889Y-86698513D01*
X111484908Y-86886308D01*
X111484909Y-86886311D01*
X111574556Y-87062251D01*
X111574558Y-87062254D01*
X111690615Y-87221996D01*
X111830253Y-87361634D01*
X111979734Y-87470236D01*
X111989999Y-87477694D01*
X112159904Y-87564266D01*
X112210699Y-87612240D01*
X112227494Y-87680061D01*
X112204956Y-87746196D01*
X112159904Y-87785233D01*
X112002821Y-87865272D01*
X111989995Y-87871808D01*
X111830253Y-87987865D01*
X111690615Y-88127503D01*
X111574558Y-88287245D01*
X111484908Y-88463191D01*
X111423889Y-88650986D01*
X111393000Y-88846013D01*
X111393000Y-89043486D01*
X111423889Y-89238513D01*
X111484908Y-89426308D01*
X111484909Y-89426311D01*
X111574556Y-89602251D01*
X111574558Y-89602254D01*
X111690615Y-89761996D01*
X111830253Y-89901634D01*
X111979734Y-90010236D01*
X111989999Y-90017694D01*
X112165939Y-90107341D01*
X112291137Y-90148020D01*
X112353736Y-90168360D01*
X112548764Y-90199250D01*
X112548769Y-90199250D01*
X112746236Y-90199250D01*
X112941263Y-90168360D01*
X113129061Y-90107341D01*
X113305001Y-90017694D01*
X113394692Y-89952529D01*
X113464746Y-89901634D01*
X113464748Y-89901631D01*
X113464752Y-89901629D01*
X113604379Y-89762002D01*
X113604381Y-89761998D01*
X113604384Y-89761996D01*
X113655279Y-89691942D01*
X113720444Y-89602251D01*
X113810091Y-89426311D01*
X113871110Y-89238513D01*
X113902000Y-89043486D01*
X113902000Y-88846013D01*
X113871110Y-88650986D01*
X113850770Y-88588387D01*
X113810091Y-88463189D01*
X113720444Y-88287249D01*
X113712986Y-88276984D01*
X113604384Y-88127503D01*
X113464746Y-87987865D01*
X113305005Y-87871808D01*
X113298619Y-87868554D01*
X113135093Y-87785232D01*
X113084300Y-87737260D01*
X113067505Y-87669439D01*
X113090042Y-87603304D01*
X113135093Y-87564267D01*
X113305001Y-87477694D01*
X113325412Y-87462864D01*
X113464746Y-87361634D01*
X113464748Y-87361631D01*
X113464752Y-87361629D01*
X113604379Y-87222002D01*
X113604381Y-87221998D01*
X113604384Y-87221996D01*
X113655279Y-87151942D01*
X113720444Y-87062251D01*
X113810091Y-86886311D01*
X113871110Y-86698513D01*
X113902000Y-86503486D01*
X113902000Y-86306013D01*
X113871110Y-86110986D01*
X113850770Y-86048387D01*
X113810091Y-85923189D01*
X113720444Y-85747249D01*
X113712986Y-85736984D01*
X113604384Y-85587503D01*
X113464746Y-85447865D01*
X113305005Y-85331808D01*
X113298619Y-85328554D01*
X113135093Y-85245232D01*
X113084300Y-85197260D01*
X113067505Y-85129439D01*
X113090042Y-85063304D01*
X113135093Y-85024267D01*
X113305001Y-84937694D01*
X113325412Y-84922864D01*
X113464746Y-84821634D01*
X113464748Y-84821631D01*
X113464752Y-84821629D01*
X113604379Y-84682002D01*
X113604381Y-84681998D01*
X113604384Y-84681996D01*
X113655279Y-84611942D01*
X113720444Y-84522251D01*
X113810091Y-84346311D01*
X113871110Y-84158513D01*
X113902000Y-83963486D01*
X113902000Y-83766013D01*
X113871110Y-83570986D01*
X113850770Y-83508387D01*
X113810091Y-83383189D01*
X113720444Y-83207249D01*
X113712986Y-83196984D01*
X113604384Y-83047503D01*
X113464746Y-82907865D01*
X113305005Y-82791808D01*
X113298619Y-82788554D01*
X113135093Y-82705232D01*
X113084300Y-82657260D01*
X113067505Y-82589439D01*
X113090042Y-82523304D01*
X113135093Y-82484267D01*
X113305001Y-82397694D01*
X113325412Y-82382864D01*
X113464746Y-82281634D01*
X113464748Y-82281631D01*
X113464752Y-82281629D01*
X113604379Y-82142002D01*
X113604381Y-82141998D01*
X113604384Y-82141996D01*
X113662827Y-82061555D01*
X113720444Y-81982251D01*
X113810091Y-81806311D01*
X113871110Y-81618513D01*
X113902000Y-81423486D01*
X113902000Y-81226013D01*
X113871110Y-81030986D01*
X113833842Y-80916287D01*
X113810091Y-80843189D01*
X113720444Y-80667249D01*
X113712986Y-80656984D01*
X113604384Y-80507503D01*
X113464746Y-80367865D01*
X113305005Y-80251808D01*
X113298619Y-80248554D01*
X113135093Y-80165232D01*
X113084300Y-80117260D01*
X113067505Y-80049439D01*
X113090042Y-79983304D01*
X113135093Y-79944267D01*
X113305001Y-79857694D01*
X113412090Y-79779890D01*
X113464746Y-79741634D01*
X113464748Y-79741631D01*
X113464752Y-79741629D01*
X113604379Y-79602002D01*
X113604381Y-79601998D01*
X113604384Y-79601996D01*
X113662825Y-79521557D01*
X113720444Y-79442251D01*
X113810091Y-79266311D01*
X113871110Y-79078513D01*
X113902000Y-78883486D01*
X113902000Y-78686013D01*
X113871110Y-78490986D01*
X113833842Y-78376287D01*
X113810091Y-78303189D01*
X113720444Y-78127249D01*
X113712986Y-78116984D01*
X113604384Y-77967503D01*
X113464746Y-77827865D01*
X113305005Y-77711808D01*
X113298619Y-77708554D01*
X113135093Y-77625232D01*
X113084300Y-77577260D01*
X113067505Y-77509439D01*
X113090042Y-77443304D01*
X113135093Y-77404267D01*
X113305001Y-77317694D01*
X113412090Y-77239890D01*
X113464746Y-77201634D01*
X113464748Y-77201631D01*
X113464752Y-77201629D01*
X113604379Y-77062002D01*
X113604381Y-77061998D01*
X113604384Y-77061996D01*
X113662825Y-76981557D01*
X113720444Y-76902251D01*
X113810091Y-76726311D01*
X113871110Y-76538513D01*
X113871129Y-76538396D01*
X113902000Y-76343486D01*
X113902000Y-76146013D01*
X113871110Y-75950986D01*
X113833842Y-75836287D01*
X113810091Y-75763189D01*
X113720444Y-75587249D01*
X113694659Y-75551759D01*
X113604384Y-75427503D01*
X113464752Y-75287871D01*
X113464749Y-75287869D01*
X113321187Y-75183566D01*
X113278523Y-75128238D01*
X113272544Y-75058625D01*
X113305149Y-74996829D01*
X113365988Y-74962472D01*
X113394073Y-74959249D01*
X113449372Y-74959249D01*
X113508983Y-74952841D01*
X113643831Y-74902546D01*
X113759046Y-74816296D01*
X113845296Y-74701081D01*
X113895591Y-74566233D01*
X113902000Y-74506623D01*
X113901999Y-73606013D01*
X126633000Y-73606013D01*
X126633000Y-73803486D01*
X126663889Y-73998513D01*
X126712293Y-74147482D01*
X126724909Y-74186311D01*
X126814556Y-74362251D01*
X126814558Y-74362254D01*
X126930615Y-74521996D01*
X127070253Y-74661634D01*
X127229994Y-74777691D01*
X127229996Y-74777692D01*
X127229999Y-74777694D01*
X127400456Y-74864547D01*
X127451249Y-74912518D01*
X127468044Y-74980339D01*
X127445507Y-75046474D01*
X127400454Y-75085513D01*
X127230267Y-75172229D01*
X127230260Y-75172233D01*
X127194510Y-75198206D01*
X127194510Y-75198207D01*
X127758091Y-75761787D01*
X127694507Y-75778825D01*
X127580493Y-75844651D01*
X127487401Y-75937743D01*
X127421575Y-76051757D01*
X127404537Y-76115340D01*
X126840957Y-75551760D01*
X126840956Y-75551760D01*
X126814983Y-75587510D01*
X126814982Y-75587512D01*
X126725373Y-75763376D01*
X126664376Y-75951103D01*
X126633500Y-76146052D01*
X126633500Y-76343447D01*
X126664376Y-76538396D01*
X126725373Y-76726123D01*
X126814983Y-76901989D01*
X126840957Y-76937738D01*
X126840957Y-76937739D01*
X127404537Y-76374159D01*
X127421575Y-76437743D01*
X127487401Y-76551757D01*
X127580493Y-76644849D01*
X127694507Y-76710675D01*
X127758090Y-76727712D01*
X127194509Y-77291291D01*
X127194510Y-77291292D01*
X127230255Y-77317262D01*
X127230268Y-77317270D01*
X127400453Y-77403985D01*
X127451249Y-77451960D01*
X127468044Y-77519781D01*
X127445506Y-77585916D01*
X127400454Y-77624953D01*
X127238689Y-77707377D01*
X127229995Y-77711808D01*
X127070253Y-77827865D01*
X126930615Y-77967503D01*
X126814558Y-78127245D01*
X126724908Y-78303191D01*
X126663889Y-78490986D01*
X126633000Y-78686013D01*
X126633000Y-78883486D01*
X126663889Y-79078513D01*
X126724908Y-79266308D01*
X126724909Y-79266311D01*
X126814556Y-79442251D01*
X126814558Y-79442254D01*
X126930615Y-79601996D01*
X127070253Y-79741634D01*
X127219734Y-79850236D01*
X127229999Y-79857694D01*
X127399904Y-79944266D01*
X127450699Y-79992240D01*
X127467494Y-80060061D01*
X127444956Y-80126196D01*
X127399904Y-80165233D01*
X127242821Y-80245272D01*
X127229995Y-80251808D01*
X127070253Y-80367865D01*
X126930615Y-80507503D01*
X126814558Y-80667245D01*
X126724908Y-80843191D01*
X126663889Y-81030986D01*
X126633000Y-81226013D01*
X126633000Y-81423486D01*
X126663889Y-81618513D01*
X126724908Y-81806308D01*
X126724909Y-81806311D01*
X126814556Y-81982251D01*
X126814558Y-81982254D01*
X126930615Y-82141996D01*
X127070253Y-82281634D01*
X127219734Y-82390236D01*
X127229999Y-82397694D01*
X127399904Y-82484266D01*
X127450699Y-82532240D01*
X127467494Y-82600061D01*
X127444956Y-82666196D01*
X127399904Y-82705233D01*
X127242821Y-82785272D01*
X127229995Y-82791808D01*
X127070253Y-82907865D01*
X126930615Y-83047503D01*
X126814558Y-83207245D01*
X126724908Y-83383191D01*
X126663889Y-83570986D01*
X126633000Y-83766013D01*
X126633000Y-83963486D01*
X126663889Y-84158513D01*
X126724908Y-84346308D01*
X126724909Y-84346311D01*
X126814556Y-84522251D01*
X126814558Y-84522254D01*
X126930615Y-84681996D01*
X127070253Y-84821634D01*
X127219734Y-84930236D01*
X127229999Y-84937694D01*
X127399904Y-85024266D01*
X127450699Y-85072240D01*
X127467494Y-85140061D01*
X127444956Y-85206196D01*
X127399904Y-85245233D01*
X127242821Y-85325272D01*
X127229995Y-85331808D01*
X127070253Y-85447865D01*
X126930615Y-85587503D01*
X126814558Y-85747245D01*
X126724908Y-85923191D01*
X126663889Y-86110986D01*
X126633000Y-86306013D01*
X126633000Y-86503486D01*
X126663889Y-86698513D01*
X126724908Y-86886308D01*
X126724909Y-86886311D01*
X126814556Y-87062251D01*
X126814558Y-87062254D01*
X126930615Y-87221996D01*
X127070253Y-87361634D01*
X127219734Y-87470236D01*
X127229999Y-87477694D01*
X127399904Y-87564266D01*
X127450699Y-87612240D01*
X127467494Y-87680061D01*
X127444956Y-87746196D01*
X127399904Y-87785233D01*
X127242821Y-87865272D01*
X127229995Y-87871808D01*
X127070253Y-87987865D01*
X126930615Y-88127503D01*
X126814558Y-88287245D01*
X126724908Y-88463191D01*
X126663889Y-88650986D01*
X126633000Y-88846013D01*
X126633000Y-89043486D01*
X126663889Y-89238513D01*
X126724908Y-89426308D01*
X126724909Y-89426311D01*
X126814556Y-89602251D01*
X126814558Y-89602254D01*
X126930615Y-89761996D01*
X127070253Y-89901634D01*
X127219734Y-90010236D01*
X127229999Y-90017694D01*
X127405939Y-90107341D01*
X127531137Y-90148020D01*
X127593736Y-90168360D01*
X127788764Y-90199250D01*
X127788769Y-90199250D01*
X127986236Y-90199250D01*
X128181263Y-90168360D01*
X128369061Y-90107341D01*
X128545001Y-90017694D01*
X128634692Y-89952529D01*
X128704746Y-89901634D01*
X128704748Y-89901631D01*
X128704752Y-89901629D01*
X128844379Y-89762002D01*
X128844381Y-89761998D01*
X128844384Y-89761996D01*
X128895279Y-89691942D01*
X128960444Y-89602251D01*
X129050091Y-89426311D01*
X129111110Y-89238513D01*
X129142000Y-89043486D01*
X129142000Y-88846013D01*
X129111110Y-88650986D01*
X129090770Y-88588387D01*
X129050091Y-88463189D01*
X128960444Y-88287249D01*
X128952986Y-88276984D01*
X128844384Y-88127503D01*
X128704746Y-87987865D01*
X128545005Y-87871808D01*
X128538619Y-87868554D01*
X128375093Y-87785232D01*
X128324300Y-87737260D01*
X128307505Y-87669439D01*
X128330042Y-87603304D01*
X128375093Y-87564267D01*
X128545001Y-87477694D01*
X128565412Y-87462864D01*
X128704746Y-87361634D01*
X128704748Y-87361631D01*
X128704752Y-87361629D01*
X128844379Y-87222002D01*
X128844381Y-87221998D01*
X128844384Y-87221996D01*
X128895279Y-87151942D01*
X128960444Y-87062251D01*
X129050091Y-86886311D01*
X129111110Y-86698513D01*
X129142000Y-86503486D01*
X129142000Y-86306013D01*
X129111110Y-86110986D01*
X129090770Y-86048387D01*
X129050091Y-85923189D01*
X128960444Y-85747249D01*
X128952986Y-85736984D01*
X128844384Y-85587503D01*
X128704746Y-85447865D01*
X128545005Y-85331808D01*
X128538619Y-85328554D01*
X128375093Y-85245232D01*
X128324300Y-85197260D01*
X128307505Y-85129439D01*
X128330042Y-85063304D01*
X128375093Y-85024267D01*
X128545001Y-84937694D01*
X128565412Y-84922864D01*
X128704746Y-84821634D01*
X128704748Y-84821631D01*
X128704752Y-84821629D01*
X128844379Y-84682002D01*
X128844381Y-84681998D01*
X128844384Y-84681996D01*
X128895279Y-84611942D01*
X128960444Y-84522251D01*
X129050091Y-84346311D01*
X129111110Y-84158513D01*
X129142000Y-83963486D01*
X129142000Y-83766013D01*
X129111110Y-83570986D01*
X129090770Y-83508387D01*
X129050091Y-83383189D01*
X128960444Y-83207249D01*
X128952986Y-83196984D01*
X128844384Y-83047503D01*
X128704746Y-82907865D01*
X128545005Y-82791808D01*
X128538619Y-82788554D01*
X128375093Y-82705232D01*
X128324300Y-82657260D01*
X128307505Y-82589439D01*
X128330042Y-82523304D01*
X128375093Y-82484267D01*
X128545001Y-82397694D01*
X128565412Y-82382864D01*
X128704746Y-82281634D01*
X128704748Y-82281631D01*
X128704752Y-82281629D01*
X128844379Y-82142002D01*
X128844381Y-82141998D01*
X128844384Y-82141996D01*
X128902827Y-82061555D01*
X128960444Y-81982251D01*
X129050091Y-81806311D01*
X129111110Y-81618513D01*
X129142000Y-81423486D01*
X129142000Y-81226013D01*
X129111110Y-81030986D01*
X129073842Y-80916287D01*
X129050091Y-80843189D01*
X128960444Y-80667249D01*
X128952986Y-80656984D01*
X128844384Y-80507503D01*
X128704746Y-80367865D01*
X128545005Y-80251808D01*
X128538619Y-80248554D01*
X128375093Y-80165232D01*
X128324300Y-80117260D01*
X128307505Y-80049439D01*
X128330042Y-79983304D01*
X128375093Y-79944267D01*
X128545001Y-79857694D01*
X128652090Y-79779890D01*
X128704746Y-79741634D01*
X128704748Y-79741631D01*
X128704752Y-79741629D01*
X128844379Y-79602002D01*
X128844381Y-79601998D01*
X128844384Y-79601996D01*
X128902825Y-79521557D01*
X128960444Y-79442251D01*
X129050091Y-79266311D01*
X129111110Y-79078513D01*
X129142000Y-78883486D01*
X129142000Y-78686013D01*
X129111110Y-78490986D01*
X129073842Y-78376287D01*
X129050091Y-78303189D01*
X128960444Y-78127249D01*
X128952986Y-78116984D01*
X128844384Y-77967503D01*
X128704746Y-77827865D01*
X128545005Y-77711808D01*
X128539834Y-77709173D01*
X128374543Y-77624952D01*
X128323750Y-77576980D01*
X128306955Y-77509159D01*
X128329492Y-77443025D01*
X128374546Y-77403985D01*
X128544741Y-77317266D01*
X128580488Y-77291293D01*
X128580488Y-77291291D01*
X128016910Y-76727712D01*
X128080493Y-76710675D01*
X128194507Y-76644849D01*
X128287599Y-76551757D01*
X128353425Y-76437743D01*
X128370462Y-76374159D01*
X128934041Y-76937738D01*
X128934043Y-76937738D01*
X128960016Y-76901991D01*
X129049626Y-76726123D01*
X129110623Y-76538396D01*
X129141500Y-76343447D01*
X129141500Y-76146052D01*
X129110623Y-75951103D01*
X129049626Y-75763376D01*
X128960020Y-75587518D01*
X128960012Y-75587505D01*
X128934042Y-75551760D01*
X128934041Y-75551759D01*
X128370462Y-76115339D01*
X128353425Y-76051757D01*
X128287599Y-75937743D01*
X128194507Y-75844651D01*
X128080493Y-75778825D01*
X128016909Y-75761787D01*
X128580489Y-75198207D01*
X128544736Y-75172231D01*
X128374545Y-75085513D01*
X128323750Y-75037539D01*
X128306955Y-74969718D01*
X128329493Y-74903583D01*
X128374542Y-74864548D01*
X128545001Y-74777694D01*
X128640352Y-74708418D01*
X128704746Y-74661634D01*
X128704748Y-74661631D01*
X128704752Y-74661629D01*
X128844379Y-74522002D01*
X128844381Y-74521998D01*
X128844384Y-74521996D01*
X128934800Y-74397547D01*
X128960444Y-74362251D01*
X129050091Y-74186311D01*
X129111110Y-73998513D01*
X129142000Y-73803486D01*
X129142000Y-73606013D01*
X129111110Y-73410986D01*
X129090770Y-73348387D01*
X129050091Y-73223189D01*
X128960444Y-73047249D01*
X128952986Y-73036984D01*
X128844384Y-72887503D01*
X128704746Y-72747865D01*
X128545004Y-72631808D01*
X128545003Y-72631807D01*
X128545001Y-72631806D01*
X128369061Y-72542159D01*
X128369058Y-72542158D01*
X128181263Y-72481139D01*
X127986236Y-72450250D01*
X127986231Y-72450250D01*
X127788769Y-72450250D01*
X127788764Y-72450250D01*
X127593736Y-72481139D01*
X127405941Y-72542158D01*
X127229995Y-72631808D01*
X127070253Y-72747865D01*
X126930615Y-72887503D01*
X126814558Y-73047245D01*
X126724908Y-73223191D01*
X126663889Y-73410986D01*
X126633000Y-73606013D01*
X113901999Y-73606013D01*
X113901999Y-72902878D01*
X113895591Y-72843267D01*
X113860008Y-72747865D01*
X113845297Y-72708421D01*
X113845293Y-72708414D01*
X113759047Y-72593205D01*
X113759044Y-72593202D01*
X113643835Y-72506956D01*
X113643828Y-72506952D01*
X113508982Y-72456658D01*
X113508983Y-72456658D01*
X113449383Y-72450251D01*
X113449381Y-72450250D01*
X113449373Y-72450250D01*
X113449364Y-72450250D01*
X111845629Y-72450250D01*
X111845623Y-72450251D01*
X111786016Y-72456658D01*
X111651171Y-72506952D01*
X111651164Y-72506956D01*
X111535955Y-72593202D01*
X111535952Y-72593205D01*
X111449706Y-72708414D01*
X111449702Y-72708421D01*
X111399408Y-72843267D01*
X111394653Y-72887498D01*
X111393001Y-72902873D01*
X111393000Y-72902885D01*
X97350499Y-72902885D01*
X97350499Y-72292128D01*
X97344091Y-72232517D01*
X97293796Y-72097669D01*
X97293795Y-72097668D01*
X97293793Y-72097664D01*
X97207547Y-71982455D01*
X97207544Y-71982452D01*
X97092335Y-71896206D01*
X97092328Y-71896202D01*
X96957482Y-71845908D01*
X96957483Y-71845908D01*
X96897883Y-71839501D01*
X96897881Y-71839500D01*
X96897873Y-71839500D01*
X96897864Y-71839500D01*
X95102129Y-71839500D01*
X95102123Y-71839501D01*
X95042516Y-71845908D01*
X94907671Y-71896202D01*
X94907664Y-71896206D01*
X94792455Y-71982452D01*
X94792452Y-71982455D01*
X94706206Y-72097664D01*
X94706202Y-72097671D01*
X94655908Y-72232517D01*
X94649501Y-72292116D01*
X94649501Y-72292123D01*
X94649500Y-72292135D01*
X92500500Y-72292135D01*
X92500500Y-65624500D01*
X92520185Y-65557461D01*
X92572989Y-65511706D01*
X92624500Y-65500500D01*
X144375500Y-65500500D01*
X144442539Y-65520185D01*
G37*
%TD.AperFunction*%
%TD*%
M02*
