M48
; DRILL file KiCad 10.0.5 date 2026-07-24T14:45:02
; FORMAT={-:-/ absolute / metric / decimal}
; #@! TF.CreationDate,2026-07-24T14:45:02+03:00
; #@! TF.GenerationSoftware,Kicad,Pcbnew,10.0.5
; #@! TF.FileFunction,Plated,1,2,PTH
FMAT,2
METRIC
; #@! TA.AperFunction,Plated,PTH,ViaDrill
T1C0.300
; #@! TA.AperFunction,Plated,PTH,ComponentDrill
T2C1.000
%
G90
G05
T1
X123.5Y-108.6
X124.5Y-108.0
X125.5Y-107.0
X127.0Y-105.5
X127.0Y-110.0
X129.0Y-109.0
X130.177Y-106.677
X131.0Y-104.5
T2
X96.0Y-73.19
X96.0Y-75.73
X96.0Y-78.27
X96.0Y-80.81
X112.647Y-73.705
X112.647Y-76.245
X112.647Y-78.785
X112.647Y-81.325
X112.647Y-83.865
X112.647Y-86.405
X112.647Y-88.945
X127.887Y-73.705
X127.887Y-76.245
X127.887Y-78.785
X127.887Y-81.325
X127.887Y-83.865
X127.887Y-86.405
X127.887Y-88.945
X138.5Y-104.19
X138.5Y-106.73
X138.5Y-109.27
X138.5Y-111.81
M30
